<svg width="16" height="16" viewBox="0 0 16 16" fill="none" xmlns="http://www.w3.org/2000/svg">
<path d="M8 0.530029C3.875 0.530029 0.5 3.89753 0.5 8.04503C0.5 11.795 3.245 14.9075 6.83 15.47V10.22H4.925V8.04503H6.83V6.38753C6.83 4.50503 7.9475 3.47003 9.665 3.47003C10.4825 3.47003 11.3375 3.61253 11.3375 3.61253V5.46503H10.3925C9.4625 5.46503 9.17 6.04253 9.17 6.63503V8.04503H11.255L10.9175 10.22H9.17V15.47C10.9373 15.1909 12.5467 14.2892 13.7074 12.9276C14.8682 11.566 15.504 9.83426 15.5 8.04503C15.5 3.89753 12.125 0.530029 8 0.530029Z" fill="white"/>
</svg>
