<svg width="16" height="16" viewBox="0 0 16 16" fill="none" xmlns="http://www.w3.org/2000/svg">
<path d="M8 0.5C7.01509 0.5 6.03982 0.693993 5.12987 1.0709C4.21993 1.44781 3.39314 2.00026 2.6967 2.6967C1.29018 4.10322 0.5 6.01088 0.5 8C0.5 11.315 2.6525 14.1275 5.63 15.125C6.005 15.185 6.125 14.9525 6.125 14.75C6.125 14.5775 6.125 14.105 6.125 13.4825C4.0475 13.9325 3.605 12.4775 3.605 12.4775C3.26 11.6075 2.7725 11.375 2.7725 11.375C2.09 10.91 2.825 10.925 2.825 10.925C3.575 10.9775 3.9725 11.6975 3.9725 11.6975C4.625 12.8375 5.7275 12.5 6.155 12.32C6.2225 11.8325 6.4175 11.5025 6.6275 11.315C4.9625 11.1275 3.215 10.4825 3.215 7.625C3.215 6.7925 3.5 6.125 3.9875 5.5925C3.9125 5.405 3.65 4.625 4.0625 3.6125C4.0625 3.6125 4.6925 3.41 6.125 4.3775C6.7175 4.2125 7.3625 4.13 8 4.13C8.6375 4.13 9.2825 4.2125 9.875 4.3775C11.3075 3.41 11.9375 3.6125 11.9375 3.6125C12.35 4.625 12.0875 5.405 12.0125 5.5925C12.5 6.125 12.785 6.7925 12.785 7.625C12.785 10.49 11.03 11.12 9.3575 11.3075C9.6275 11.54 9.875 11.9975 9.875 12.695C9.875 13.7 9.875 14.51 9.875 14.75C9.875 14.9525 9.995 15.1925 10.3775 15.125C13.355 14.12 15.5 11.315 15.5 8C15.5 7.01509 15.306 6.03982 14.9291 5.12987C14.5522 4.21993 13.9997 3.39314 13.3033 2.6967C12.6069 2.00026 11.7801 1.44781 10.8701 1.0709C9.96018 0.693993 8.98491 0.5 8 0.5Z" fill="white"/>
</svg>
