<svg width="16" height="16" viewBox="0 0 16 16" fill="none" xmlns="http://www.w3.org/2000/svg">
<path d="M15.0125 7.325H8.13496V9.3725H13.0175C12.77 12.23 10.3925 13.4525 8.14246 13.4525C5.26996 13.4525 2.74996 11.1875 2.74996 8C2.74996 4.925 5.14996 2.5475 8.14996 2.5475C10.4675 2.5475 11.825 4.025 11.825 4.025L13.25 2.54C13.25 2.54 11.42 0.5 8.07496 0.5C3.81496 0.5 0.522461 4.1 0.522461 8C0.522461 11.7875 3.61996 15.5 8.18746 15.5C12.2 15.5 15.125 12.7475 15.125 8.6825C15.125 7.82 15.0125 7.325 15.0125 7.325Z" fill="white"/>
</svg>
